<svg xmlns="http://www.w3.org/2000/svg" viewBox="0 0 128 128">
  <defs>
    <linearGradient id="bg" x1="14" y1="16" x2="114" y2="112" gradientUnits="userSpaceOnUse">
      <stop stop-color="#35c7ff"/>
      <stop offset="0.45" stop-color="#236bff"/>
      <stop offset="1" stop-color="#06111f"/>
    </linearGradient>
    <linearGradient id="ring" x1="26" y1="75" x2="111" y2="41" gradientUnits="userSpaceOnUse">
      <stop stop-color="#ffffff"/>
      <stop offset="0.45" stop-color="#64d2ff"/>
      <stop offset="1" stop-color="#0b56c8"/>
    </linearGradient>
    <filter id="glow" x="-40%" y="-40%" width="180%" height="180%">
      <feGaussianBlur stdDeviation="3" result="blur"/>
      <feMerge>
        <feMergeNode in="blur"/>
        <feMergeNode in="SourceGraphic"/>
      </feMerge>
    </filter>
  </defs>
  <rect x="10" y="10" width="108" height="108" rx="24" fill="url(#bg)"/>
  <path d="M10 82c30-13 62-8 108-39v75H10Z" fill="#061a46" opacity="0.35"/>
  <g filter="url(#glow)">
    <path d="M31 34h18v25h26V34h18v62H75V72H49v24H31Z" fill="#02122c"/>
    <path d="M82 96 101 34h-17L65 96h15l3-12h16l3 12h17L100 34" fill="#7be7ff" opacity="0.9"/>
    <path d="M86 70 91 52l5 18Z" fill="#06111f"/>
    <path d="M24 79c19 13 65-4 88-31-17 9-34 17-51 23-18 6-32 9-37 8Z" fill="url(#ring)"/>
    <path d="M25 78c14 3 45-4 73-22" fill="none" stroke="#ffffff" stroke-width="4" stroke-linecap="round" opacity="0.95"/>
  </g>
</svg>
